<svg width="580" height="194" viewBox="0 0 580 194" fill="none" xmlns="http://www.w3.org/2000/svg">
<rect y="8" width="345" height="27" rx="13.5" fill="#4F46E5"/>
<rect x="57" y="39" width="116" height="32" rx="16" transform="rotate(90 57 39)" fill="#4F46E5"/>
<path d="M104.273 156.364C98.7045 156.364 93.7803 155.455 89.5 153.636C85.2576 151.78 81.9242 148.977 79.5 145.227C77.0757 141.477 75.8636 136.705 75.8636 130.909C75.8636 126.136 76.678 122.064 78.3068 118.693C79.9356 115.284 82.2083 112.5 85.125 110.341C88.0417 108.182 91.4318 106.534 95.2954 105.398C99.197 104.261 103.402 103.523 107.909 103.182C112.795 102.803 116.716 102.348 119.67 101.818C122.663 101.25 124.822 100.473 126.148 99.4886C127.473 98.4659 128.136 97.1212 128.136 95.4545V95.2273C128.136 92.9545 127.265 91.2121 125.523 90C123.78 88.7879 121.545 88.1818 118.818 88.1818C115.826 88.1818 113.383 88.8447 111.489 90.1705C109.633 91.4583 108.515 93.447 108.136 96.1364H79.2727C79.6515 90.8333 81.3371 85.947 84.3295 81.4773C87.3598 76.9697 91.7727 73.3712 97.5682 70.6818C103.364 67.9545 110.598 66.5909 119.273 66.5909C125.523 66.5909 131.129 67.3295 136.091 68.8068C141.053 70.2462 145.277 72.2727 148.761 74.8864C152.246 77.4621 154.898 80.4924 156.716 83.9773C158.572 87.4242 159.5 91.1742 159.5 95.2273V155H130.182V142.727H129.5C127.758 145.985 125.636 148.617 123.136 150.625C120.674 152.633 117.852 154.091 114.67 155C111.527 155.909 108.061 156.364 104.273 156.364ZM114.5 136.591C116.886 136.591 119.121 136.098 121.205 135.114C123.326 134.129 125.049 132.708 126.375 130.852C127.701 128.996 128.364 126.742 128.364 124.091V116.818C127.53 117.159 126.64 117.481 125.693 117.784C124.784 118.087 123.799 118.371 122.739 118.636C121.716 118.902 120.617 119.148 119.443 119.375C118.307 119.602 117.114 119.811 115.864 120C113.439 120.379 111.451 121.004 109.898 121.875C108.383 122.708 107.246 123.75 106.489 125C105.769 126.212 105.409 127.576 105.409 129.091C105.409 131.515 106.261 133.371 107.966 134.659C109.67 135.947 111.848 136.591 114.5 136.591ZM174.831 155V38.6364H206.195V82.9545H206.649C207.786 80 209.452 77.2917 211.649 74.8295C213.846 72.3295 216.574 70.3409 219.831 68.8636C223.089 67.3485 226.877 66.5909 231.195 66.5909C236.952 66.5909 242.426 68.125 247.615 71.1932C252.843 74.2614 257.085 79.0909 260.343 85.6818C263.638 92.2727 265.286 100.833 265.286 111.364C265.286 121.439 263.714 129.792 260.57 136.42C257.464 143.049 253.297 147.992 248.07 151.25C242.88 154.508 237.18 156.136 230.968 156.136C226.877 156.136 223.221 155.473 220.002 154.148C216.82 152.784 214.093 150.947 211.82 148.636C209.585 146.288 207.862 143.636 206.649 140.682H205.968V155H174.831ZM205.513 111.364C205.513 115.606 206.062 119.28 207.161 122.386C208.297 125.455 209.888 127.841 211.934 129.545C214.017 131.212 216.498 132.045 219.377 132.045C222.255 132.045 224.699 131.231 226.706 129.602C228.752 127.936 230.305 125.568 231.365 122.5C232.464 119.394 233.013 115.682 233.013 111.364C233.013 107.045 232.464 103.352 231.365 100.284C230.305 97.178 228.752 94.8106 226.706 93.1818C224.699 91.5151 222.255 90.6818 219.377 90.6818C216.498 90.6818 214.017 91.5151 211.934 93.1818C209.888 94.8106 208.297 97.178 207.161 100.284C206.062 103.352 205.513 107.045 205.513 111.364ZM369.173 156.591C359.855 156.591 351.824 154.811 345.082 151.25C338.377 147.652 333.207 142.5 329.57 135.795C325.972 129.053 324.173 120.985 324.173 111.591C324.173 102.576 325.991 94.697 329.627 87.9545C333.264 81.2121 338.396 75.9659 345.025 72.2159C351.654 68.4659 359.476 66.5909 368.491 66.5909C375.082 66.5909 381.048 67.6136 386.389 69.6591C391.73 71.7045 396.294 74.678 400.082 78.5795C403.87 82.4432 406.786 87.1402 408.832 92.6705C410.877 98.2008 411.9 104.432 411.9 111.364V118.636H333.945V101.364H383.036C382.998 98.8636 382.355 96.6667 381.105 94.7727C379.892 92.8409 378.245 91.3447 376.161 90.2841C374.116 89.1856 371.786 88.6364 369.173 88.6364C366.635 88.6364 364.305 89.1856 362.184 90.2841C360.063 91.3447 358.358 92.822 357.07 94.7159C355.82 96.6098 355.158 98.8258 355.082 101.364V120C355.082 122.803 355.669 125.303 356.843 127.5C358.017 129.697 359.703 131.42 361.9 132.67C364.097 133.92 366.748 134.545 369.855 134.545C372.014 134.545 373.983 134.242 375.764 133.636C377.582 133.03 379.135 132.159 380.423 131.023C381.711 129.848 382.658 128.447 383.264 126.818H411.9C410.915 132.879 408.586 138.144 404.911 142.614C401.237 147.045 396.37 150.492 390.309 152.955C384.286 155.379 377.241 156.591 369.173 156.591ZM477.771 67.7273V90.4545H419.362V67.7273H477.771ZM430.498 155V65.2273C430.498 58.0303 431.786 52.0644 434.362 47.3295C436.938 42.5947 440.574 39.053 445.271 36.7045C449.968 34.3561 455.498 33.1818 461.862 33.1818C465.839 33.1818 469.703 33.4848 473.453 34.0909C477.241 34.697 480.044 35.2273 481.862 35.6818L477.316 58.1818C476.18 57.8409 474.854 57.5758 473.339 57.3864C471.824 57.1591 470.498 57.0455 469.362 57.0455C466.407 57.0455 464.419 57.6705 463.396 58.9205C462.373 60.1705 461.862 61.8182 461.862 63.8636V155H430.498ZM509.764 187.727C506.166 187.727 502.738 187.443 499.48 186.875C496.223 186.345 493.363 185.606 490.901 184.659L497.719 162.386C500.294 163.295 502.643 163.883 504.764 164.148C506.923 164.413 508.76 164.261 510.276 163.693C511.829 163.125 512.946 162.045 513.628 160.455L514.31 158.864L483.628 67.7273H516.355L530.446 128.182H531.355L545.673 67.7273H578.628L546.81 162.273C545.219 167.083 542.908 171.402 539.878 175.227C536.885 179.091 532.946 182.14 528.06 184.375C523.173 186.61 517.075 187.727 509.764 187.727Z" fill="#2A3342"/>
<path d="M310.574 38.6364V155H279.211V38.6364H310.574Z" fill="#4F46E5"/>
</svg>
